<mxfile host="app.diagrams.net" modified="2024-05-05T10:46:16.438Z" agent="Mozilla/5.0 (Macintosh; Intel Mac OS X 10_15_7) AppleWebKit/537.36 (KHTML, like Gecko) Chrome/124.0.0.0 Safari/537.36" version="24.3.1" etag="EjvUb8IRc7lendGX6qlt" type="github">
  <diagram name="第 1 页" id="tldhjeFF_ZKe8F7cqq0K">
    <mxGraphModel>
      <root>
        <mxCell id="0" />
        <mxCell id="1" parent="0" />
      </root>
    </mxGraphModel>
  </diagram>
</mxfile>
